<?xml version="1.0" standalone="no"?>
<!DOCTYPE svg PUBLIC "-//W3C//DTD SVG 20010904//EN"
 "http://www.w3.org/TR/2001/REC-SVG-20010904/DTD/svg10.dtd">
<svg version="1.0" xmlns="http://www.w3.org/2000/svg"
 width="1280.000000pt" height="851.000000pt" viewBox="0 0 1280.000000 851.000000"
 preserveAspectRatio="xMidYMid meet">
<g transform="translate(0.000000,851.000000) scale(0.100000,-0.100000)"
fill="#000000" stroke="none">
<path d="M5570 8507 c-3 -3 -69 -10 -148 -16 -614 -48 -1134 -194 -1666 -469
-388 -200 -720 -444 -1042 -766 -336 -336 -582 -676 -793 -1096 -230 -458
-362 -902 -427 -1430 -26 -206 -26 -744 0 -950 64 -523 197 -971 422 -1420
575 -1148 1626 -1971 2874 -2249 160 -35 353 -66 505 -80 61 -6 165 -16 231
-22 282 -27 813 28 1210 126 751 185 1429 569 1979 1120 1141 1140 1535 2810
1026 4343 -208 629 -552 1183 -1026 1657 -666 667 -1527 1092 -2450 1210 -240
31 -680 57 -695 42z m570 -811 c981 -127 1844 -649 2417 -1461 235 -333 416
-731 518 -1135 238 -947 65 -1950 -476 -2762 -225 -338 -558 -680 -889 -914
-477 -337 -1016 -542 -1620 -616 -159 -20 -642 -16 -800 6 -745 103 -1405 411
-1931 901 -588 550 -956 1249 -1075 2045 -31 202 -43 573 -25 775 94 1078 662
2032 1561 2620 492 322 1052 512 1645 559 116 9 556 -3 675 -18z"/>
<path d="M5455 7623 c-692 -58 -1322 -308 -1860 -739 -141 -113 -396 -368
-509 -509 -392 -491 -633 -1050 -722 -1677 -25 -176 -30 -597 -10 -788 111
-1041 677 -1950 1569 -2517 757 -480 1711 -634 2592 -418 1278 314 2262 1346
2514 2635 48 245 55 332 55 645 0 312 -9 415 -55 649 -155 788 -581 1486
-1217 1996 -509 408 -1139 659 -1802 720 -105 9 -459 11 -555 3z"/>
<path d="M10952 8014 c-172 -194 -314 -736 -379 -1439 -21 -236 -25 -1036 -5
-1295 52 -675 138 -1124 255 -1317 l40 -67 -12 -181 c-7 -99 -21 -304 -31
-455 -18 -250 -43 -600 -101 -1430 -11 -162 -29 -412 -39 -555 -17 -236 -17
-263 -3 -293 32 -67 123 -102 267 -102 103 0 180 17 227 50 59 43 59 41 38
515 -10 237 -28 639 -39 895 -11 256 -29 668 -41 915 -18 406 -20 593 -19
1910 0 1838 -13 2580 -51 2788 -21 120 -44 133 -107 61z"/>
<path d="M106 7658 c-3 -24 -10 -144 -16 -268 -6 -124 -18 -310 -26 -415 -7
-104 -21 -311 -29 -460 -8 -148 -20 -333 -26 -410 -11 -132 -10 -146 10 -233
29 -128 63 -196 135 -268 44 -44 77 -67 119 -82 32 -12 64 -22 72 -22 8 0 18
-8 23 -17 5 -10 3 -136 -4 -288 -7 -148 -22 -472 -34 -720 -11 -247 -25 -542
-30 -655 -5 -113 -23 -502 -40 -865 -32 -702 -41 -904 -65 -1405 -22 -457 -21
-486 12 -550 40 -75 106 -112 215 -118 145 -8 243 32 290 120 22 41 23 52 21
233 -1 105 -7 350 -12 545 -6 195 -15 513 -21 705 -11 390 -25 884 -40 1380
-5 182 -14 497 -20 700 -6 204 -15 489 -19 635 -4 148 -4 273 1 283 5 9 16 17
26 17 26 0 120 46 162 80 49 39 105 121 130 192 37 105 40 173 25 488 -15 317
-17 350 -40 655 -15 202 -45 706 -45 758 0 24 -4 28 -22 25 l-23 -3 -3 -582
-2 -582 -26 -20 c-35 -27 -67 -26 -101 3 l-28 24 -6 253 c-4 140 -10 401 -14
582 l-7 327 -33 0 -32 0 -8 -302 c-4 -167 -10 -431 -14 -586 l-6 -284 -25 -20
c-31 -25 -87 -19 -112 13 -17 20 -18 64 -18 600 l0 579 -33 0 -34 0 -6 -182
c-4 -99 -7 -279 -7 -398 0 -119 -3 -299 -7 -401 -6 -173 -8 -184 -29 -206 -25
-25 -69 -30 -95 -10 -38 29 -39 41 -39 626 0 558 0 571 -19 571 -16 0 -21 -9
-25 -42z"/>
<path d="M12052 7439 c-106 -20 -275 -142 -384 -279 -113 -140 -183 -277 -230
-448 -32 -113 -31 -393 0 -539 71 -331 235 -573 456 -677 l88 -41 -6 -170 c-3
-93 -10 -262 -16 -375 -5 -113 -21 -452 -35 -755 -14 -302 -32 -694 -40 -870
-8 -176 -24 -518 -35 -760 -11 -242 -29 -633 -40 -870 -28 -603 -29 -584 6
-652 41 -79 105 -115 216 -121 145 -8 243 32 290 120 22 41 23 52 21 238 -1
107 -7 353 -13 545 -10 348 -20 700 -40 1390 -6 198 -15 506 -20 685 -5 179
-14 496 -20 705 -6 209 -15 490 -19 625 -4 135 -5 250 -2 257 3 6 42 30 87 52
270 136 449 482 481 931 7 93 -32 302 -77 418 -138 354 -452 632 -668 591z"/>
</g>
</svg>
